<?xml version="1.0" standalone="no"?>
<!DOCTYPE svg PUBLIC "-//W3C//DTD SVG 20010904//EN"
 "http://www.w3.org/TR/2001/REC-SVG-20010904/DTD/svg10.dtd">
<svg version="1.0" xmlns="http://www.w3.org/2000/svg"
 width="395.000000pt" height="395.000000pt" viewBox="0 0 395.000000 395.000000"
 preserveAspectRatio="xMidYMid meet">
<metadata>
Created by potrace 1.14, written by Peter Selinger 2001-2017
</metadata>
<g transform="translate(0.000000,395.000000) scale(0.100000,-0.100000)"
fill="#000000" stroke="none">
<path d="M1601 2696 c-21 -22 -21 -29 -21 -583 l0 -562 26 -20 c29 -23 70 -19
91 8 9 12 12 152 13 578 0 497 -2 563 -16 577 -8 9 -21 16 -27 17 -7 0 -20 2
-29 4 -9 2 -26 -7 -37 -19z"/>
<path d="M2449 2579 c-20 -20 -21 -28 -18 -316 3 -255 6 -299 20 -316 23 -29
77 -27 101 3 17 21 18 41 14 312 -4 242 -8 294 -21 314 -20 31 -67 32 -96 3z"/>
<path d="M1454 2460 c-47 -18 -47 -10 -46 -524 1 -372 4 -489 13 -505 19 -30
58 -36 88 -13 l26 19 3 493 c2 437 0 495 -14 511 -19 21 -44 28 -70 19z"/>
<path d="M1793 2459 c-12 -4 -26 -17 -32 -28 -7 -13 -11 -190 -11 -535 0 -503
1 -517 20 -536 26 -26 72 -26 95 0 18 20 19 50 19 540 0 482 -1 520 -18 538
-22 25 -45 31 -73 21z"/>
<path d="M2126 2453 c-14 -7 -28 -24 -31 -36 -3 -12 -4 -273 -3 -580 3 -540 4
-559 22 -573 25 -18 66 -17 91 2 20 15 20 27 21 572 1 424 -2 564 -11 588 -15
37 -50 47 -89 27z"/>
<path d="M1946 2229 l-26 -20 0 -325 0 -325 24 -24 c13 -13 32 -22 42 -20 11
2 25 4 32 4 33 2 39 61 38 380 l-1 313 -24 19 c-30 24 -52 24 -85 -2z"/>
<path d="M1114 2230 c-12 -5 -25 -14 -29 -21 -10 -16 -12 -431 -2 -468 14 -57
106 -56 120 1 4 13 6 119 6 235 -1 184 -3 215 -17 232 -21 24 -51 32 -78 21z"/>
<path d="M2660 2233 c-49 -18 -50 -22 -50 -263 0 -235 2 -245 44 -268 23 -12
72 2 80 23 3 8 6 87 6 177 2 297 2 295 -22 318 -22 20 -32 23 -58 13z"/>
<path d="M2282 2176 c-18 -23 -19 -43 -18 -325 1 -332 1 -331 65 -333 65 -2
66 1 68 320 1 158 0 297 -2 309 -12 55 -79 72 -113 29z"/>
<path d="M1284 2047 c-43 -22 -44 -27 -44 -363 0 -292 2 -324 18 -343 24 -29
65 -34 91 -10 12 11 21 25 22 32 1 7 2 153 3 326 1 285 0 316 -16 336 -21 27
-49 36 -74 22z"/>
</g>
</svg>
